<?xml version="1.0" standalone="no"?>
<!DOCTYPE svg PUBLIC "-//W3C//DTD SVG 20010904//EN"
 "http://www.w3.org/TR/2001/REC-SVG-20010904/DTD/svg10.dtd">
<svg version="1.0" xmlns="http://www.w3.org/2000/svg"
 width="500.000000pt" height="161.000000pt" viewBox="0 0 500.000000 161.000000"
 preserveAspectRatio="xMidYMid meet">

<g transform="translate(0.000000,161.000000) scale(0.100000,-0.100000)"
fill="#000000" stroke="none">
<path d="M450 1394 c-191 -50 -343 -189 -411 -375 -140 -384 144 -791 551
-792 146 0 262 39 231 77 -10 12 -22 11 -83 -6 -142 -40 -314 -13 -437 68
-159 106 -244 266 -243 459 0 105 28 200 82 285 47 73 141 155 223 194 111 54
188 63 362 43 15 -1 20 4 20 23 0 19 -6 26 -30 31 -55 12 -209 8 -265 -7z"/>
<path d="M1366 1325 c-58 -35 -114 -93 -144 -150 -26 -48 -27 -58 -30 -228 -4
-191 0 -207 44 -207 l24 0 0 -208 c0 -200 1 -210 21 -228 16 -14 36 -19 76
-18 99 1 94 -35 91 553 -3 498 -3 506 -23 508 -11 1 -38 -9 -59 -22z m34 -290
l0 -235 -81 0 -81 0 4 153 c3 142 5 155 30 203 27 51 90 114 115 114 10 0 13
-51 13 -235z m-2 -492 l-3 -198 -42 -3 -43 -3 0 200 0 201 45 0 45 0 -2 -197z"/>
<path d="M780 1102 c0 -197 -3 -189 73 -235 l27 -17 0 -264 c0 -251 1 -264 20
-281 11 -10 34 -18 50 -18 16 0 39 8 50 18 19 17 20 30 20 282 l0 263 33 19
c68 41 67 37 67 233 l0 179 -22 -3 c-23 -3 -23 -5 -26 -170 l-2 -167 -38 -22
c-64 -38 -62 -28 -62 -316 0 -256 -1 -263 -20 -263 -19 0 -20 7 -20 265 0 294
2 283 -69 320 l-31 15 -2 168 c-3 165 -3 167 -25 170 l-23 3 0 -179z"/>
<path d="M885 1268 c-3 -8 -4 -75 -3 -149 3 -126 4 -134 23 -134 19 0 20 7 20
145 0 130 -2 145 -18 148 -9 2 -19 -3 -22 -10z"/>
<path d="M975 1268 c-3 -8 -4 -75 -3 -149 3 -126 4 -134 23 -134 19 0 20 7 20
145 0 130 -2 145 -18 148 -9 2 -19 -3 -22 -10z"/>
<path d="M512 1235 c-35 -8 -85 -26 -110 -41 -180 -106 -262 -309 -203 -502
44 -145 170 -262 316 -292 74 -15 110 -11 110 14 0 17 -12 22 -68 32 -94 18
-152 48 -218 114 -75 74 -102 144 -103 260 0 72 4 94 27 144 55 119 148 196
263 217 32 6 69 13 82 15 41 8 22 56 -21 53 -7 0 -41 -7 -75 -14z"/>
<path d="M3600 1102 c-29 -24 -32 -78 -5 -98 44 -32 105 -5 105 47 0 55 -58
85 -100 51z"/>
<path d="M4180 830 l0 -250 60 0 60 0 0 110 c0 127 12 150 75 150 48 0 55 -19
55 -149 l0 -111 60 0 60 0 0 141 c0 112 -3 146 -16 169 -38 63 -132 80 -198
35 l-36 -24 0 89 0 90 -60 0 -60 0 0 -250z"/>
<path d="M1650 820 l0 -240 175 0 175 0 0 35 0 35 -135 0 -135 0 0 65 0 65
115 0 115 0 0 35 0 35 -115 0 -115 0 0 65 0 65 130 0 130 0 0 40 0 40 -170 0
-170 0 0 -240z"/>
<path d="M3167 1053 c-4 -3 -7 -111 -7 -240 l0 -233 65 0 65 0 0 85 0 85 105
0 105 0 0 50 0 50 -105 0 -105 0 0 55 0 55 115 0 115 0 0 50 0 50 -173 0 c-96
0 -177 -3 -180 -7z"/>
<path d="M3580 765 l0 -185 60 0 60 0 0 185 0 185 -60 0 -60 0 0 -185z"/>
<path d="M3864 932 c-73 -35 -112 -113 -100 -201 13 -94 84 -151 190 -151 80
0 167 47 153 82 -3 7 -21 22 -41 32 -33 17 -37 18 -53 3 -31 -27 -66 -30 -96
-7 -34 27 -44 77 -23 118 23 46 66 55 116 25 26 -15 30 -15 64 7 20 12 35 27
33 33 -2 6 -20 24 -41 41 -48 39 -139 47 -202 18z"/>
<path d="M4694 936 c-63 -20 -64 -21 -46 -66 11 -31 19 -39 31 -34 78 34 161
26 161 -16 0 -18 -6 -20 -65 -20 -108 0 -165 -37 -165 -108 0 -47 24 -87 60
-102 43 -18 115 -15 145 4 22 15 25 15 25 1 0 -12 13 -15 60 -15 l60 0 0 144
c0 132 -2 145 -22 171 -12 15 -36 34 -54 41 -41 17 -135 17 -190 0z m146 -226
c0 -33 -22 -50 -68 -50 -35 0 -56 21 -47 49 7 22 23 28 78 30 35 1 37 -1 37
-29z"/>
<path d="M2131 923 c-40 -21 -46 -32 -28 -56 11 -17 15 -17 49 -2 56 23 104
19 133 -10 44 -43 34 -52 -60 -57 -94 -5 -128 -21 -154 -73 -20 -41 0 -100 42
-125 43 -27 121 -26 165 0 32 20 32 20 32 0 0 -17 7 -20 40 -20 l40 0 0 113
c-1 135 -10 182 -44 216 -23 23 -36 26 -104 28 -58 2 -86 -1 -111 -14z m179
-202 c0 -48 -41 -81 -100 -81 -47 0 -70 16 -70 50 0 39 21 49 103 50 59 0 67
-2 67 -19z"/>
<path d="M2518 925 c-35 -20 -48 -44 -48 -90 0 -47 30 -77 101 -100 52 -17 89
-40 89 -56 0 -4 -7 -15 -16 -23 -21 -22 -82 -20 -129 4 -21 11 -39 19 -40 17
-13 -16 -25 -49 -20 -56 13 -23 96 -43 155 -39 79 6 120 40 120 103 0 53 -26
79 -111 110 -71 25 -90 45 -70 69 17 20 71 21 117 1 34 -14 35 -14 46 11 9 20
8 28 -5 42 -24 23 -151 28 -189 7z"/>
<path d="M2828 760 l76 -180 -21 -28 c-17 -22 -28 -27 -61 -26 -32 0 -43 -4
-52 -22 -16 -28 -7 -42 33 -52 40 -11 94 1 118 25 11 10 59 118 108 241 l89
222 -38 0 -38 0 -30 -77 c-16 -43 -37 -102 -47 -130 -11 -29 -21 -53 -25 -53
-3 0 -28 58 -55 130 l-50 130 -41 0 -42 0 76 -180z"/>
</g>
</svg>
