<svg xmlns="http://www.w3.org/2000/svg" xmlns:xlink="http://www.w3.org/1999/xlink" width="500" zoomAndPan="magnify" viewBox="0 0 375 374.999991" height="500" preserveAspectRatio="xMidYMid meet" version="1.0"><defs><g/><clipPath id="eec415e9b2"><path d="M 0 143.027344 L 63 143.027344 L 63 232.277344 L 0 232.277344 Z M 0 143.027344 " clip-rule="nonzero"/></clipPath><clipPath id="0bc8e56414"><path d="M 88 147 L 108.75 147 L 108.75 228 L 88 228 Z M 88 147 " clip-rule="nonzero"/></clipPath></defs><g fill="#000000" fill-opacity="1"><g transform="translate(119.099649, 205.510018)"><g><path d="M 4.6875 0 L 4.6875 -35.671875 L 30.171875 -35.671875 L 30.171875 -30.265625 L 10.703125 -30.265625 L 10.703125 -20.578125 L 28.125 -20.578125 L 28.125 -15.234375 L 10.703125 -15.234375 L 10.703125 -5.40625 L 30.78125 -5.40625 L 30.78125 0 Z M 4.6875 0 "/></g></g></g><g fill="#000000" fill-opacity="1"><g transform="translate(152.625237, 205.510018)"><g><path d="M 26.34375 0 L 20.578125 0 L 20.578125 -3.3125 C 18.648438 -0.9375 15.664062 0.25 11.625 0.25 C 9.71875 0.25 8.039062 -0.113281 6.59375 -0.84375 C 5.15625 -1.570312 4.046875 -2.570312 3.265625 -3.84375 C 2.484375 -5.113281 2.09375 -6.550781 2.09375 -8.15625 C 2.09375 -10.632812 2.988281 -12.601562 4.78125 -14.0625 C 6.582031 -15.519531 9.097656 -16.269531 12.328125 -16.3125 L 20.53125 -16.3125 L 20.53125 -17.125 C 20.53125 -18.851562 19.976562 -20.191406 18.875 -21.140625 C 17.769531 -22.097656 16.164062 -22.578125 14.0625 -22.578125 C 11.445312 -22.578125 8.78125 -21.660156 6.0625 -19.828125 L 3.671875 -23.890625 C 5.742188 -25.117188 7.601562 -25.992188 9.25 -26.515625 C 10.894531 -27.046875 12.925781 -27.3125 15.34375 -27.3125 C 18.800781 -27.3125 21.476562 -26.46875 23.375 -24.78125 C 25.28125 -23.101562 26.253906 -20.769531 26.296875 -17.78125 Z M 12.84375 -4.375 C 14.914062 -4.375 16.671875 -4.859375 18.109375 -5.828125 C 19.554688 -6.796875 20.363281 -8.03125 20.53125 -9.53125 L 20.53125 -12.03125 L 13.203125 -12.03125 C 11.265625 -12.03125 9.84375 -11.75 8.9375 -11.1875 C 8.039062 -10.625 7.59375 -9.695312 7.59375 -8.40625 C 7.59375 -7.1875 8.054688 -6.207031 8.984375 -5.46875 C 9.921875 -4.738281 11.207031 -4.375 12.84375 -4.375 Z M 12.84375 -4.375 "/></g></g></g><g fill="#000000" fill-opacity="1"><g transform="translate(182.584271, 205.510018)"><g><path d="M 19.765625 -20.28125 C 18.578125 -21.03125 17.273438 -21.613281 15.859375 -22.03125 C 14.453125 -22.457031 13.15625 -22.671875 11.96875 -22.671875 C 10.75 -22.671875 9.78125 -22.445312 9.0625 -22 C 8.351562 -21.5625 8 -20.882812 8 -19.96875 C 8 -19.050781 8.414062 -18.351562 9.25 -17.875 C 10.082031 -17.40625 11.46875 -16.863281 13.40625 -16.25 C 15.238281 -15.707031 16.753906 -15.164062 17.953125 -14.625 C 19.160156 -14.082031 20.195312 -13.265625 21.0625 -12.171875 C 21.9375 -11.085938 22.375 -9.660156 22.375 -7.890625 C 22.375 -5.242188 21.378906 -3.234375 19.390625 -1.859375 C 17.398438 -0.484375 14.925781 0.203125 11.96875 0.203125 C 9.9375 0.203125 7.941406 -0.125 5.984375 -0.78125 C 4.035156 -1.445312 2.394531 -2.375 1.0625 -3.5625 L 3.15625 -7.75 C 4.3125 -6.726562 5.726562 -5.910156 7.40625 -5.296875 C 9.09375 -4.679688 10.703125 -4.375 12.234375 -4.375 C 13.554688 -4.375 14.625 -4.613281 15.4375 -5.09375 C 16.25 -5.570312 16.65625 -6.300781 16.65625 -7.28125 C 16.65625 -8.03125 16.410156 -8.648438 15.921875 -9.140625 C 15.429688 -9.640625 14.828125 -10.03125 14.109375 -10.3125 C 13.398438 -10.601562 12.363281 -10.953125 11 -11.359375 C 9.207031 -11.898438 7.738281 -12.429688 6.59375 -12.953125 C 5.457031 -13.484375 4.484375 -14.265625 3.671875 -15.296875 C 2.859375 -16.335938 2.453125 -17.726562 2.453125 -19.46875 C 2.453125 -22.050781 3.398438 -24.007812 5.296875 -25.34375 C 7.203125 -26.6875 9.582031 -27.359375 12.4375 -27.359375 C 14.164062 -27.359375 15.867188 -27.113281 17.546875 -26.625 C 19.234375 -26.132812 20.6875 -25.460938 21.90625 -24.609375 Z M 19.765625 -20.28125 "/></g></g></g><g fill="#000000" fill-opacity="1"><g transform="translate(206.633019, 205.510018)"><g><path d="M 14.984375 3.71875 C 14.128906 5.851562 12.953125 7.457031 11.453125 8.53125 C 9.960938 9.601562 8.203125 10.140625 6.171875 10.140625 C 4.941406 10.140625 3.828125 9.953125 2.828125 9.578125 C 1.828125 9.203125 0.847656 8.625 -0.109375 7.84375 L 2.390625 3.3125 C 3.035156 3.789062 3.628906 4.128906 4.171875 4.328125 C 4.722656 4.535156 5.300781 4.640625 5.90625 4.640625 C 7.738281 4.640625 9.113281 3.632812 10.03125 1.625 L 10.953125 -0.40625 L -0.25 -27.109375 L 5.8125 -27.109375 L 13.90625 -6.578125 L 21.453125 -27.109375 L 27.3125 -27.109375 Z M 14.984375 3.71875 "/></g></g></g><g fill="#000000" fill-opacity="1"><g transform="translate(233.792913, 205.510018)"><g><path d="M 3.46875 0 L 3.46875 -35.71875 L 30.171875 -35.71875 L 30.109375 -28.28125 L 12.796875 -28.28125 L 12.796875 -20.328125 L 28.78125 -20.328125 L 28.78125 -12.890625 L 12.796875 -12.890625 L 12.796875 0 Z M 3.46875 0 "/></g></g></g><g fill="#000000" fill-opacity="1"><g transform="translate(264.821911, 205.510018)"><g><path d="M 3.46875 0 L 3.46875 -27.5625 L 12.484375 -27.5625 L 12.484375 0 Z M 8 -40.25 C 9.394531 -40.25 10.539062 -39.796875 11.4375 -38.890625 C 12.34375 -37.992188 12.796875 -36.832031 12.796875 -35.40625 C 12.796875 -34.019531 12.34375 -32.867188 11.4375 -31.953125 C 10.539062 -31.035156 9.394531 -30.578125 8 -30.578125 C 6.601562 -30.578125 5.457031 -31.035156 4.5625 -31.953125 C 3.664062 -32.867188 3.21875 -34.019531 3.21875 -35.40625 C 3.21875 -36.832031 3.664062 -37.992188 4.5625 -38.890625 C 5.457031 -39.796875 6.601562 -40.25 8 -40.25 Z M 8 -40.25 "/></g></g></g><g fill="#000000" fill-opacity="1"><g transform="translate(280.871398, 205.510018)"><g><path d="M 21.25 -17.53125 C 19.957031 -19.425781 18.15625 -20.375 15.84375 -20.375 C 14.21875 -20.375 12.894531 -19.753906 11.875 -18.515625 C 10.851562 -17.273438 10.34375 -15.671875 10.34375 -13.703125 C 10.34375 -11.703125 10.851562 -10.085938 11.875 -8.859375 C 12.894531 -7.640625 14.21875 -7.03125 15.84375 -7.03125 C 18.351562 -7.03125 20.15625 -8.066406 21.25 -10.140625 L 27.921875 -6.3125 C 26.835938 -4.207031 25.207031 -2.578125 23.03125 -1.421875 C 20.851562 -0.265625 18.304688 0.3125 15.390625 0.3125 C 12.566406 0.3125 10.082031 -0.265625 7.9375 -1.421875 C 5.800781 -2.578125 4.144531 -4.207031 2.96875 -6.3125 C 1.800781 -8.425781 1.21875 -10.875 1.21875 -13.65625 C 1.21875 -16.476562 1.8125 -18.96875 3 -21.125 C 4.195312 -23.28125 5.875 -24.941406 8.03125 -26.109375 C 10.1875 -27.285156 12.671875 -27.875 15.484375 -27.875 C 18.234375 -27.875 20.675781 -27.300781 22.8125 -26.15625 C 24.957031 -25.019531 26.628906 -23.414062 27.828125 -21.34375 Z M 21.25 -17.53125 "/></g></g></g><g fill="#000000" fill-opacity="1"><g transform="translate(309.607618, 205.510018)"><g><path d="M 21.90625 -27.921875 C 24.96875 -27.921875 27.40625 -26.96875 29.21875 -25.0625 C 31.039062 -23.164062 31.953125 -20.601562 31.953125 -17.375 L 31.953125 0 L 22.875 0 L 22.875 -14.78125 C 22.875 -16.34375 22.457031 -17.570312 21.625 -18.46875 C 20.789062 -19.375 19.644531 -19.828125 18.1875 -19.828125 C 16.519531 -19.785156 15.203125 -19.195312 14.234375 -18.0625 C 13.273438 -16.925781 12.796875 -15.441406 12.796875 -13.609375 L 12.796875 0 L 3.71875 0 L 3.71875 -37.8125 L 12.796875 -37.8125 L 12.796875 -23.078125 C 13.773438 -24.679688 15.035156 -25.890625 16.578125 -26.703125 C 18.128906 -27.515625 19.90625 -27.921875 21.90625 -27.921875 Z M 21.90625 -27.921875 "/></g></g></g><g fill="#000000" fill-opacity="1"><g transform="translate(344.305074, 205.510018)"><g><path d="M 15.890625 -27.921875 C 19.703125 -27.921875 22.660156 -27.046875 24.765625 -25.296875 C 26.867188 -23.546875 27.9375 -21.09375 27.96875 -17.9375 L 27.96875 0 L 19.0625 0 L 19.0625 -3.109375 C 17.226562 -0.765625 14.457031 0.40625 10.75 0.40625 C 7.832031 0.40625 5.53125 -0.378906 3.84375 -1.953125 C 2.164062 -3.535156 1.328125 -5.617188 1.328125 -8.203125 C 1.328125 -10.816406 2.234375 -12.851562 4.046875 -14.3125 C 5.867188 -15.78125 8.476562 -16.53125 11.875 -16.5625 L 19.0625 -16.5625 L 19.0625 -16.859375 C 19.0625 -18.191406 18.609375 -19.210938 17.703125 -19.921875 C 16.804688 -20.640625 15.507812 -21 13.8125 -21 C 12.65625 -21 11.351562 -20.8125 9.90625 -20.4375 C 8.46875 -20.0625 7.015625 -19.515625 5.546875 -18.796875 L 3.0625 -24.921875 C 5.300781 -25.929688 7.445312 -26.679688 9.5 -27.171875 C 11.550781 -27.671875 13.679688 -27.921875 15.890625 -27.921875 Z M 13.546875 -5.75 C 14.910156 -5.75 16.101562 -6.082031 17.125 -6.75 C 18.144531 -7.414062 18.789062 -8.273438 19.0625 -9.328125 L 19.0625 -11.71875 L 13.65625 -11.71875 C 11.101562 -11.71875 9.828125 -10.765625 9.828125 -8.859375 C 9.828125 -7.910156 10.160156 -7.15625 10.828125 -6.59375 C 11.492188 -6.03125 12.398438 -5.75 13.546875 -5.75 Z M 13.546875 -5.75 "/></g></g></g><path fill="#1a1a1a" d="M 45.425781 159.523438 C 46.546875 159.523438 47.457031 158.609375 47.457031 157.488281 C 47.457031 156.363281 46.546875 155.453125 45.425781 155.453125 C 27.714844 155.453125 13.304688 169.898438 13.304688 187.652344 C 13.304688 205.40625 27.714844 219.851562 45.425781 219.851562 C 46.546875 219.851562 47.457031 218.941406 47.457031 217.816406 C 47.457031 216.695312 46.546875 215.78125 45.425781 215.78125 C 29.953125 215.78125 17.363281 203.164062 17.363281 187.652344 C 17.363281 172.140625 29.953125 159.523438 45.425781 159.523438 Z M 45.425781 159.523438 " fill-opacity="1" fill-rule="nonzero"/><g clip-path="url(#eec415e9b2)"><path fill="#1a1a1a" d="M 59.449219 225.367188 C 54.710938 227.25 49.699219 228.207031 44.550781 228.207031 C 22.246094 228.207031 4.097656 210.015625 4.097656 187.652344 C 4.097656 165.292969 22.246094 147.097656 44.550781 147.097656 C 47.816406 147.097656 51.058594 147.488281 54.195312 148.257812 C 55.285156 148.523438 56.382812 147.855469 56.652344 146.765625 C 56.917969 145.671875 56.25 144.570312 55.160156 144.304688 C 51.707031 143.457031 48.140625 143.027344 44.550781 143.027344 C 20.007812 143.027344 0.0390625 163.046875 0.0390625 187.652344 C 0.0390625 212.257812 20.007812 232.277344 44.550781 232.277344 C 50.210938 232.277344 55.726562 231.226562 60.945312 229.152344 C 61.988281 228.738281 62.496094 227.554688 62.085938 226.511719 C 61.671875 225.464844 60.492188 224.957031 59.449219 225.367188 Z M 59.449219 225.367188 " fill-opacity="1" fill-rule="nonzero"/></g><path fill="#1a1a1a" d="M 82.363281 152.644531 C 81.242188 152.644531 80.332031 153.554688 80.332031 154.679688 L 80.332031 176.882812 C 80.332031 177.898438 79.773438 178.824219 78.871094 179.296875 L 75.667969 180.972656 C 73.796875 181.949219 72.636719 183.871094 72.636719 185.980469 L 72.636719 222.734375 C 72.636719 223.21875 72.246094 223.609375 71.765625 223.609375 L 70.792969 223.609375 C 70.3125 223.609375 69.921875 223.21875 69.921875 222.734375 L 69.921875 185.980469 C 69.921875 183.871094 68.757812 181.949219 66.890625 180.972656 L 63.6875 179.296875 C 62.785156 178.824219 62.226562 177.898438 62.226562 176.882812 L 62.226562 154.679688 C 62.226562 153.554688 61.316406 152.644531 60.195312 152.644531 C 59.074219 152.644531 58.167969 153.554688 58.167969 154.679688 L 58.167969 176.882812 C 58.167969 179.421875 59.5625 181.730469 61.808594 182.902344 L 65.011719 184.582031 C 65.535156 184.855469 65.859375 185.390625 65.859375 185.980469 L 65.859375 222.734375 C 65.859375 225.460938 68.074219 227.679688 70.792969 227.679688 L 71.765625 227.679688 C 74.484375 227.679688 76.699219 225.460938 76.699219 222.734375 L 76.699219 185.980469 C 76.699219 185.390625 77.023438 184.855469 77.546875 184.582031 L 80.75 182.90625 C 82.996094 181.730469 84.390625 179.421875 84.390625 176.882812 L 84.390625 154.679688 C 84.390625 153.554688 83.484375 152.644531 82.363281 152.644531 Z M 82.363281 152.644531 " fill-opacity="1" fill-rule="nonzero"/><path fill="#1a1a1a" d="M 67.890625 175.582031 C 69.011719 175.582031 69.921875 174.671875 69.921875 173.546875 L 69.921875 154.679688 C 69.921875 153.554688 69.011719 152.644531 67.890625 152.644531 C 66.769531 152.644531 65.859375 153.554688 65.859375 154.679688 L 65.859375 173.546875 C 65.859375 174.671875 66.769531 175.582031 67.890625 175.582031 Z M 67.890625 175.582031 " fill-opacity="1" fill-rule="nonzero"/><path fill="#1a1a1a" d="M 74.667969 175.582031 C 75.789062 175.582031 76.699219 174.671875 76.699219 173.546875 L 76.699219 154.679688 C 76.699219 153.554688 75.789062 152.644531 74.667969 152.644531 C 73.546875 152.644531 72.636719 153.554688 72.636719 154.679688 L 72.636719 173.546875 C 72.636719 174.671875 73.546875 175.582031 74.667969 175.582031 Z M 74.667969 175.582031 " fill-opacity="1" fill-rule="nonzero"/><g clip-path="url(#0bc8e56414)"><path fill="#1a1a1a" d="M 107.675781 147.914062 C 107.039062 147.539062 106.242188 147.527344 105.589844 147.890625 L 101.617188 150.121094 C 97.539062 152.40625 94.203125 155.792969 91.976562 159.914062 C 90.023438 163.519531 88.992188 167.59375 88.992188 171.699219 L 88.992188 190.386719 C 88.992188 192.042969 90.335938 193.386719 91.984375 193.386719 L 94.332031 193.386719 L 94.332031 222.554688 C 94.332031 225.382812 96.625 227.679688 99.441406 227.679688 L 103.601562 227.679688 C 106.417969 227.679688 108.710938 225.382812 108.710938 222.554688 L 108.710938 149.726562 C 108.710938 148.984375 108.316406 148.289062 107.675781 147.914062 Z M 104.652344 222.554688 C 104.652344 223.136719 104.179688 223.609375 103.601562 223.609375 L 99.441406 223.609375 C 98.863281 223.609375 98.390625 223.136719 98.390625 222.554688 L 98.390625 193.386719 L 104.652344 193.386719 Z M 94.332031 189.316406 L 93.054688 189.316406 L 93.054688 171.699219 C 93.054688 168.269531 93.914062 164.867188 95.546875 161.851562 C 97.40625 158.410156 100.191406 155.582031 103.601562 153.671875 L 104.652344 153.082031 L 104.652344 189.316406 Z M 94.332031 189.316406 " fill-opacity="1" fill-rule="nonzero"/></g></svg>