<svg xmlns="http://www.w3.org/2000/svg" xmlns:xlink="http://www.w3.org/1999/xlink" width="500" zoomAndPan="magnify" viewBox="0 0 375 374.999991" height="500" preserveAspectRatio="xMidYMid meet" version="1.0"><defs><g/><clipPath id="daf1735ff9"><path d="M 0 143.027344 L 63 143.027344 L 63 232 L 0 232 Z M 0 143.027344 " clip-rule="nonzero"/></clipPath><clipPath id="1ada8955b2"><path d="M 88 147 L 108.75 147 L 108.75 228 L 88 228 Z M 88 147 " clip-rule="nonzero"/></clipPath></defs><g fill="#a75b33" fill-opacity="1"><g transform="translate(119.099649, 205.510018)"><g><path d="M 4.6875 0 L 4.6875 -35.671875 L 30.171875 -35.671875 L 30.171875 -30.265625 L 10.703125 -30.265625 L 10.703125 -20.578125 L 28.125 -20.578125 L 28.125 -15.234375 L 10.703125 -15.234375 L 10.703125 -5.40625 L 30.78125 -5.40625 L 30.78125 0 Z M 4.6875 0 "/></g></g></g><g fill="#a75b33" fill-opacity="1"><g transform="translate(152.625237, 205.510018)"><g><path d="M 26.34375 0 L 20.578125 0 L 20.578125 -3.3125 C 18.648438 -0.9375 15.664062 0.25 11.625 0.25 C 9.71875 0.25 8.039062 -0.113281 6.59375 -0.84375 C 5.15625 -1.570312 4.046875 -2.570312 3.265625 -3.84375 C 2.484375 -5.113281 2.09375 -6.550781 2.09375 -8.15625 C 2.09375 -10.632812 2.988281 -12.601562 4.78125 -14.0625 C 6.582031 -15.519531 9.097656 -16.269531 12.328125 -16.3125 L 20.53125 -16.3125 L 20.53125 -17.125 C 20.53125 -18.851562 19.976562 -20.191406 18.875 -21.140625 C 17.769531 -22.097656 16.164062 -22.578125 14.0625 -22.578125 C 11.445312 -22.578125 8.78125 -21.660156 6.0625 -19.828125 L 3.671875 -23.890625 C 5.742188 -25.117188 7.601562 -25.992188 9.25 -26.515625 C 10.894531 -27.046875 12.925781 -27.3125 15.34375 -27.3125 C 18.800781 -27.3125 21.476562 -26.46875 23.375 -24.78125 C 25.28125 -23.101562 26.253906 -20.769531 26.296875 -17.78125 Z M 12.84375 -4.375 C 14.914062 -4.375 16.671875 -4.859375 18.109375 -5.828125 C 19.554688 -6.796875 20.363281 -8.03125 20.53125 -9.53125 L 20.53125 -12.03125 L 13.203125 -12.03125 C 11.265625 -12.03125 9.84375 -11.75 8.9375 -11.1875 C 8.039062 -10.625 7.59375 -9.695312 7.59375 -8.40625 C 7.59375 -7.1875 8.054688 -6.207031 8.984375 -5.46875 C 9.921875 -4.738281 11.207031 -4.375 12.84375 -4.375 Z M 12.84375 -4.375 "/></g></g></g><g fill="#a75b33" fill-opacity="1"><g transform="translate(182.584271, 205.510018)"><g><path d="M 19.765625 -20.28125 C 18.578125 -21.03125 17.273438 -21.613281 15.859375 -22.03125 C 14.453125 -22.457031 13.15625 -22.671875 11.96875 -22.671875 C 10.75 -22.671875 9.78125 -22.445312 9.0625 -22 C 8.351562 -21.5625 8 -20.882812 8 -19.96875 C 8 -19.050781 8.414062 -18.351562 9.25 -17.875 C 10.082031 -17.40625 11.46875 -16.863281 13.40625 -16.25 C 15.238281 -15.707031 16.753906 -15.164062 17.953125 -14.625 C 19.160156 -14.082031 20.195312 -13.265625 21.0625 -12.171875 C 21.9375 -11.085938 22.375 -9.660156 22.375 -7.890625 C 22.375 -5.242188 21.378906 -3.234375 19.390625 -1.859375 C 17.398438 -0.484375 14.925781 0.203125 11.96875 0.203125 C 9.9375 0.203125 7.941406 -0.125 5.984375 -0.78125 C 4.035156 -1.445312 2.394531 -2.375 1.0625 -3.5625 L 3.15625 -7.75 C 4.3125 -6.726562 5.726562 -5.910156 7.40625 -5.296875 C 9.09375 -4.679688 10.703125 -4.375 12.234375 -4.375 C 13.554688 -4.375 14.625 -4.613281 15.4375 -5.09375 C 16.25 -5.570312 16.65625 -6.300781 16.65625 -7.28125 C 16.65625 -8.03125 16.410156 -8.648438 15.921875 -9.140625 C 15.429688 -9.640625 14.828125 -10.03125 14.109375 -10.3125 C 13.398438 -10.601562 12.363281 -10.953125 11 -11.359375 C 9.207031 -11.898438 7.738281 -12.429688 6.59375 -12.953125 C 5.457031 -13.484375 4.484375 -14.265625 3.671875 -15.296875 C 2.859375 -16.335938 2.453125 -17.726562 2.453125 -19.46875 C 2.453125 -22.050781 3.398438 -24.007812 5.296875 -25.34375 C 7.203125 -26.6875 9.582031 -27.359375 12.4375 -27.359375 C 14.164062 -27.359375 15.867188 -27.113281 17.546875 -26.625 C 19.234375 -26.132812 20.6875 -25.460938 21.90625 -24.609375 Z M 19.765625 -20.28125 "/></g></g></g><g fill="#a75b33" fill-opacity="1"><g transform="translate(206.633019, 205.510018)"><g><path d="M 14.984375 3.71875 C 14.128906 5.851562 12.953125 7.457031 11.453125 8.53125 C 9.960938 9.601562 8.203125 10.140625 6.171875 10.140625 C 4.941406 10.140625 3.828125 9.953125 2.828125 9.578125 C 1.828125 9.203125 0.847656 8.625 -0.109375 7.84375 L 2.390625 3.3125 C 3.035156 3.789062 3.628906 4.128906 4.171875 4.328125 C 4.722656 4.535156 5.300781 4.640625 5.90625 4.640625 C 7.738281 4.640625 9.113281 3.632812 10.03125 1.625 L 10.953125 -0.40625 L -0.25 -27.109375 L 5.8125 -27.109375 L 13.90625 -6.578125 L 21.453125 -27.109375 L 27.3125 -27.109375 Z M 14.984375 3.71875 "/></g></g></g><g fill="#a75b33" fill-opacity="1"><g transform="translate(233.792913, 205.510018)"><g><path d="M 3.46875 0 L 3.46875 -35.71875 L 30.171875 -35.71875 L 30.109375 -28.28125 L 12.796875 -28.28125 L 12.796875 -20.328125 L 28.78125 -20.328125 L 28.78125 -12.890625 L 12.796875 -12.890625 L 12.796875 0 Z M 3.46875 0 "/></g></g></g><g fill="#a75b33" fill-opacity="1"><g transform="translate(264.821911, 205.510018)"><g><path d="M 3.46875 0 L 3.46875 -27.5625 L 12.484375 -27.5625 L 12.484375 0 Z M 8 -40.25 C 9.394531 -40.25 10.539062 -39.796875 11.4375 -38.890625 C 12.34375 -37.992188 12.796875 -36.832031 12.796875 -35.40625 C 12.796875 -34.019531 12.34375 -32.867188 11.4375 -31.953125 C 10.539062 -31.035156 9.394531 -30.578125 8 -30.578125 C 6.601562 -30.578125 5.457031 -31.035156 4.5625 -31.953125 C 3.664062 -32.867188 3.21875 -34.019531 3.21875 -35.40625 C 3.21875 -36.832031 3.664062 -37.992188 4.5625 -38.890625 C 5.457031 -39.796875 6.601562 -40.25 8 -40.25 Z M 8 -40.25 "/></g></g></g><g fill="#a75b33" fill-opacity="1"><g transform="translate(280.871398, 205.510018)"><g><path d="M 21.25 -17.53125 C 19.957031 -19.425781 18.15625 -20.375 15.84375 -20.375 C 14.21875 -20.375 12.894531 -19.753906 11.875 -18.515625 C 10.851562 -17.273438 10.34375 -15.671875 10.34375 -13.703125 C 10.34375 -11.703125 10.851562 -10.085938 11.875 -8.859375 C 12.894531 -7.640625 14.21875 -7.03125 15.84375 -7.03125 C 18.351562 -7.03125 20.15625 -8.066406 21.25 -10.140625 L 27.921875 -6.3125 C 26.835938 -4.207031 25.207031 -2.578125 23.03125 -1.421875 C 20.851562 -0.265625 18.304688 0.3125 15.390625 0.3125 C 12.566406 0.3125 10.082031 -0.265625 7.9375 -1.421875 C 5.800781 -2.578125 4.144531 -4.207031 2.96875 -6.3125 C 1.800781 -8.425781 1.21875 -10.875 1.21875 -13.65625 C 1.21875 -16.476562 1.8125 -18.96875 3 -21.125 C 4.195312 -23.28125 5.875 -24.941406 8.03125 -26.109375 C 10.1875 -27.285156 12.671875 -27.875 15.484375 -27.875 C 18.234375 -27.875 20.675781 -27.300781 22.8125 -26.15625 C 24.957031 -25.019531 26.628906 -23.414062 27.828125 -21.34375 Z M 21.25 -17.53125 "/></g></g></g><g fill="#a75b33" fill-opacity="1"><g transform="translate(309.607618, 205.510018)"><g><path d="M 21.90625 -27.921875 C 24.96875 -27.921875 27.40625 -26.96875 29.21875 -25.0625 C 31.039062 -23.164062 31.953125 -20.601562 31.953125 -17.375 L 31.953125 0 L 22.875 0 L 22.875 -14.78125 C 22.875 -16.34375 22.457031 -17.570312 21.625 -18.46875 C 20.789062 -19.375 19.644531 -19.828125 18.1875 -19.828125 C 16.519531 -19.785156 15.203125 -19.195312 14.234375 -18.0625 C 13.273438 -16.925781 12.796875 -15.441406 12.796875 -13.609375 L 12.796875 0 L 3.71875 0 L 3.71875 -37.8125 L 12.796875 -37.8125 L 12.796875 -23.078125 C 13.773438 -24.679688 15.035156 -25.890625 16.578125 -26.703125 C 18.128906 -27.515625 19.90625 -27.921875 21.90625 -27.921875 Z M 21.90625 -27.921875 "/></g></g></g><g fill="#a75b33" fill-opacity="1"><g transform="translate(344.305074, 205.510018)"><g><path d="M 15.890625 -27.921875 C 19.703125 -27.921875 22.660156 -27.046875 24.765625 -25.296875 C 26.867188 -23.546875 27.9375 -21.09375 27.96875 -17.9375 L 27.96875 0 L 19.0625 0 L 19.0625 -3.109375 C 17.226562 -0.765625 14.457031 0.40625 10.75 0.40625 C 7.832031 0.40625 5.53125 -0.378906 3.84375 -1.953125 C 2.164062 -3.535156 1.328125 -5.617188 1.328125 -8.203125 C 1.328125 -10.816406 2.234375 -12.851562 4.046875 -14.3125 C 5.867188 -15.78125 8.476562 -16.53125 11.875 -16.5625 L 19.0625 -16.5625 L 19.0625 -16.859375 C 19.0625 -18.191406 18.609375 -19.210938 17.703125 -19.921875 C 16.804688 -20.640625 15.507812 -21 13.8125 -21 C 12.65625 -21 11.351562 -20.8125 9.90625 -20.4375 C 8.46875 -20.0625 7.015625 -19.515625 5.546875 -18.796875 L 3.0625 -24.921875 C 5.300781 -25.929688 7.445312 -26.679688 9.5 -27.171875 C 11.550781 -27.671875 13.679688 -27.921875 15.890625 -27.921875 Z M 13.546875 -5.75 C 14.910156 -5.75 16.101562 -6.082031 17.125 -6.75 C 18.144531 -7.414062 18.789062 -8.273438 19.0625 -9.328125 L 19.0625 -11.71875 L 13.65625 -11.71875 C 11.101562 -11.71875 9.828125 -10.765625 9.828125 -8.859375 C 9.828125 -7.910156 10.160156 -7.15625 10.828125 -6.59375 C 11.492188 -6.03125 12.398438 -5.75 13.546875 -5.75 Z M 13.546875 -5.75 "/></g></g></g><path fill="#a75b33" d="M 45.375 159.464844 C 46.496094 159.464844 47.402344 158.554688 47.402344 157.4375 C 47.402344 156.316406 46.496094 155.40625 45.375 155.40625 C 27.683594 155.40625 13.289062 169.800781 13.289062 187.496094 C 13.289062 205.1875 27.683594 219.582031 45.375 219.582031 C 46.496094 219.582031 47.402344 218.671875 47.402344 217.550781 C 47.402344 216.433594 46.496094 215.523438 45.375 215.523438 C 29.921875 215.523438 17.347656 202.949219 17.347656 187.492188 C 17.347656 172.039062 29.921875 159.464844 45.375 159.464844 Z M 45.375 159.464844 " fill-opacity="1" fill-rule="nonzero"/><g clip-path="url(#daf1735ff9)"><path fill="#a75b33" d="M 59.386719 225.078125 C 54.652344 226.953125 49.644531 227.902344 44.503906 227.902344 C 22.222656 227.902344 4.09375 209.777344 4.09375 187.496094 C 4.09375 165.210938 22.222656 147.085938 44.503906 147.085938 C 47.761719 147.085938 51.003906 147.472656 54.136719 148.238281 C 55.226562 148.503906 56.324219 147.839844 56.589844 146.75 C 56.855469 145.664062 56.191406 144.566406 55.101562 144.300781 C 51.652344 143.457031 48.085938 143.027344 44.503906 143.027344 C 19.984375 143.027344 0.0390625 162.976562 0.0390625 187.496094 C 0.0390625 212.011719 19.984375 231.960938 44.503906 231.960938 C 50.15625 231.960938 55.667969 230.914062 60.878906 228.847656 C 61.921875 228.433594 62.429688 227.253906 62.015625 226.214844 C 61.605469 225.171875 60.425781 224.664062 59.386719 225.078125 Z M 59.386719 225.078125 " fill-opacity="1" fill-rule="nonzero"/></g><path fill="#a75b33" d="M 82.273438 152.609375 C 81.152344 152.609375 80.246094 153.519531 80.246094 154.640625 L 80.246094 176.761719 C 80.246094 177.777344 79.6875 178.699219 78.785156 179.167969 L 75.585938 180.835938 C 73.71875 181.8125 72.558594 183.722656 72.558594 185.828125 L 72.558594 222.453125 C 72.558594 222.933594 72.167969 223.324219 71.6875 223.324219 L 70.714844 223.324219 C 70.234375 223.324219 69.84375 222.933594 69.84375 222.453125 L 69.84375 185.828125 C 69.84375 183.722656 68.683594 181.8125 66.820312 180.835938 L 63.617188 179.167969 C 62.71875 178.699219 62.160156 177.777344 62.160156 176.761719 L 62.160156 154.640625 C 62.160156 153.519531 61.25 152.609375 60.132812 152.609375 C 59.011719 152.609375 58.105469 153.519531 58.105469 154.640625 L 58.105469 176.761719 C 58.105469 179.292969 59.5 181.59375 61.742188 182.761719 L 64.941406 184.433594 C 65.464844 184.707031 65.789062 185.242188 65.789062 185.828125 L 65.789062 222.453125 C 65.789062 225.171875 68 227.378906 70.714844 227.378906 L 71.6875 227.378906 C 74.40625 227.378906 76.613281 225.171875 76.613281 222.453125 L 76.613281 185.828125 C 76.613281 185.242188 76.941406 184.707031 77.460938 184.433594 L 80.664062 182.761719 C 82.90625 181.59375 84.300781 179.292969 84.300781 176.761719 L 84.300781 154.640625 C 84.300781 153.519531 83.394531 152.609375 82.273438 152.609375 Z M 82.273438 152.609375 " fill-opacity="1" fill-rule="nonzero"/><path fill="#a75b33" d="M 67.816406 175.464844 C 68.9375 175.464844 69.84375 174.558594 69.84375 173.4375 L 69.84375 154.640625 C 69.84375 153.519531 68.9375 152.609375 67.816406 152.609375 C 66.695312 152.609375 65.789062 153.519531 65.789062 154.640625 L 65.789062 173.4375 C 65.789062 174.558594 66.695312 175.464844 67.816406 175.464844 Z M 67.816406 175.464844 " fill-opacity="1" fill-rule="nonzero"/><path fill="#a75b33" d="M 74.585938 175.464844 C 75.707031 175.464844 76.617188 174.558594 76.617188 173.4375 L 76.617188 154.640625 C 76.617188 153.519531 75.707031 152.609375 74.585938 152.609375 C 73.46875 152.609375 72.558594 153.519531 72.558594 154.640625 L 72.558594 173.4375 C 72.558594 174.558594 73.46875 175.464844 74.585938 175.464844 Z M 74.585938 175.464844 " fill-opacity="1" fill-rule="nonzero"/><g clip-path="url(#1ada8955b2)"><path fill="#a75b33" d="M 107.5625 147.898438 C 106.921875 147.523438 106.125 147.511719 105.476562 147.875 L 101.507812 150.09375 C 97.433594 152.375 94.101562 155.746094 91.878906 159.851562 C 89.929688 163.445312 88.898438 167.507812 88.898438 171.597656 L 88.898438 190.21875 C 88.898438 191.867188 90.238281 193.210938 91.886719 193.210938 L 94.230469 193.210938 L 94.230469 222.273438 C 94.230469 225.089844 96.519531 227.378906 99.335938 227.378906 L 103.488281 227.378906 C 106.304688 227.378906 108.59375 225.089844 108.59375 222.273438 L 108.59375 149.703125 C 108.59375 148.964844 108.199219 148.273438 107.5625 147.898438 Z M 104.539062 222.273438 C 104.539062 222.851562 104.066406 223.324219 103.488281 223.324219 L 99.335938 223.324219 C 98.753906 223.324219 98.285156 222.851562 98.285156 222.273438 L 98.285156 193.207031 L 104.539062 193.207031 Z M 94.230469 189.152344 L 92.953125 189.152344 L 92.953125 171.597656 C 92.953125 168.183594 93.8125 164.789062 95.441406 161.785156 C 97.300781 158.355469 100.085938 155.539062 103.488281 153.632812 L 104.539062 153.046875 L 104.539062 189.152344 Z M 94.230469 189.152344 " fill-opacity="1" fill-rule="nonzero"/></g></svg>